/* XPM */
static char *ea[] = {
/* columns rows colors chars-per-pixel */
"64 64 161 2 ",
"   c #04060B",
".  c #09070C",
"X  c #06090D",
"o  c #09090E",
"O  c #130B0E",
"+  c #1B0C0E",
"@  c #14100F",
"#  c #040610",
"$  c #070A10",
"%  c #0C0D13",
"&  c #0D0F18",
"*  c #120E13",
"=  c #1B0E12",
"-  c #0E1015",
";  c #0F1118",
":  c #131015",
">  c #1B1013",
",  c #14141A",
"<  c #1B161B",
"1  c #15181F",
"2  c #1A191E",
"3  c #2B0D07",
"4  c #240D0D",
"5  c #2B0E0E",
"6  c #330C07",
"7  c #3D0E06",
"8  c #330E0D",
"9  c #3B0F0D",
"0  c #22100E",
"q  c #2C100E",
"w  c #3F1107",
"e  c #34120E",
"r  c #3B130C",
"t  c #341808",
"y  c #3D190A",
"u  c #230E11",
"i  c #2B0F10",
"p  c #310E10",
"a  c #241112",
"s  c #2C1212",
"d  c #22171A",
"f  c #281618",
"g  c #2D191A",
"h  c #321211",
"j  c #3A1411",
"k  c #371813",
"l  c #321A1A",
"z  c #1A1B20",
"x  c #221C23",
"c  c #431205",
"v  c #4A1506",
"b  c #4D1C06",
"n  c #43140B",
"m  c #4B160B",
"M  c #441A0C",
"N  c #4B1A0C",
"B  c #541605",
"V  c #5E1704",
"C  c #551B06",
"Z  c #5D1C05",
"A  c #51160B",
"S  c #551A0B",
"D  c #5B1B0B",
"F  c #471911",
"G  c #641D04",
"H  c #601F09",
"J  c #4B210C",
"K  c #5B2007",
"L  c #53230A",
"P  c #5C250A",
"I  c #642105",
"U  c #6C2304",
"Y  c #642805",
"T  c #6B2A05",
"R  c #64290A",
"E  c #6A2A0B",
"W  c #732504",
"Q  c #7A2604",
"!  c #742B05",
"~  c #7B2C04",
"^  c #7A2C08",
"/  c #7E3206",
"(  c #7B340A",
")  c #7F380B",
"_  c #822D03",
"`  c #8A2F03",
"'  c #843206",
"]  c #8B3404",
"[  c #8E3A06",
"{  c #82360A",
"}  c #8A3409",
"|  c #8C3D09",
" . c #923204",
".. c #9B3502",
"X. c #923B05",
"o. c #9D3A05",
"O. c #913608",
"+. c #903A0A",
"@. c #A73F02",
"#. c #A83E04",
"$. c #974103",
"%. c #9B4306",
"&. c #9E4807",
"*. c #9C4509",
"=. c #9E4909",
"-. c #A14405",
";. c #AD4204",
":. c #A74D07",
">. c #AB4C06",
",. c #A34B09",
"<. c #AB4E08",
"1. c #B34701",
"2. c #B34902",
"3. c #BB4E03",
"4. c #AE5307",
"5. c #AF5108",
"6. c #B45305",
"7. c #BB5402",
"8. c #BB5A06",
"9. c #B05208",
"0. c #BA5708",
"q. c #B9580B",
"w. c #C24901",
"e. c #C25302",
"r. c #CA5301",
"t. c #C45B04",
"y. c #CB5C04",
"u. c #CD5D08",
"i. c #D15303",
"p. c #D15F03",
"a. c #D95E01",
"s. c #C56005",
"d. c #CC6204",
"f. c #D36404",
"g. c #DF6000",
"h. c #D66B05",
"j. c #DB6D04",
"k. c #D66408",
"l. c #DC6E09",
"z. c #DC7105",
"x. c #DB7108",
"c. c #E46501",
"v. c #EB6D02",
"b. c #E17304",
"n. c #EE7403",
"m. c #EB7A05",
"M. c #E07508",
"N. c #F27402",
"B. c #F57D01",
"V. c #F97E01",
"C. c #F38404",
"Z. c #FA8502",
"A. c #F68A05",
"S. c #FB8C03",
"D. c #FC9404",
"F. c #FD9B04",
"G. c #FEA406",
"H. c #FEA807",
"J. c #FEA709",
"K. c #FEAC0A",
"L. c #FEB20C",
/* pixels */
"          X                               o o o o o O O 3  .n.N.N.X.w + O . . . o o     X   X                                   ",
"X       X           $ X X   X X X o   o o   o o O o + + w o.N.N.n.-.c 4 + . O O o o o o X o o X X X X X   $     X   X X         ",
"          $ X X %   X   X X X X o o o o X % o O O O + + c @.V.V.V.>.C 4 + O O . o o o o o X X X o X X X $     X X X X X         ",
"  X   o X X X % X $ X % X X % o o o   o o X o O O O + 4 v 1.Z.Z.C.2.Z 3 4 @ @ o o % o o o o o o X X o X X   X % X X X X         ",
"X X X %   o X $ %   % o o o o % o o o o o o O * + + 0 5 b 3.D.S.S.7.I q 0 + O % o o % o % o X o % X X $ %   X   X X X X X   X   ",
"      $ % % o % % % o % % % o % % o % o % o * O + 4 q 5 B 2.D.D.D.7.I e 3 > O * O o % % o % % % - % % % $ % % ; % X % $ X X     ",
"X X X % $ $ % % % % % % % % % % % % % % * o O = + 4 h e C t.D.D.F.t.I r s 0 > : % : : % % % % % ; % $ % % $ % $ % $ $ X X X     ",
"X $ X % % $ % % % % % % % % % % * % * * * o * = + 4 r r Z t.F.D.F.t.W r h + a = : % - % % - % % % % ; o $ % % $ % X % o % X     ",
"X X X % % X % %   % % % ; % % % o % % % * % = > u i h j G t.F.D.F.t.U w h a > > * * : % % % % % % % o % % % % % % % $ X $   o   ",
"X X X X X % % % % % % & % % % , ; * % * * o > = u i y n I d.F.F.F.d.W y r a > > : : * , : % : , : - - % ; % % % % % % % $ X X   ",
"X X X % % % $ % ; % & % % % % % % % % % = O = a a 5 n n G f.F.G.G.f.~ w j a u o o       X X X X X   X   X   X X X   X           ",
"X o X % % $ % % % % % % , ; % * * % * * * o = a s i n n G f.G.G.J.f.Q M F a a o d d < z x 1 , z 2 1 : 2 , 1 1 , , , ; ; % % o   ",
"  X X % $ % % % % $ % % % % % % % % , * * o * a s p m m U d.G.G.G.h.! v y s a * a * % % % % % : ; ; o - $ - $ $ X - o % o X X   ",
"  X X o % % % % % % % & % % % & : * * * > * u u u h F n U h.K.J.K.d.^ m F i u O l : * , % * % % % % - % $ - - % - o % % o       ",
"X X X % % % % % & % % - % % * : * % : * * * a u s h m m I h.G.K.H.h./ N F s a O d : : % % % % % - - % $ - - % - % % % X o X     ",
"X % $ X $ $ % % $ ; % % * % % ; , * * * > O = u s h m m U j.J.J.J.x./ v F i u * f * * * % ; * % $ $ - - $ - % - % % % o X       ",
"  X o o % X - % % % % $ % - % : : ; : * = % u u i h m m W l.K.G.L.h.^ N m s i O f : : % * ; : % - - % % % % % % % % X % X X X   ",
"X X X X - X $ - ; % % & % ; % % % * : : > * u u h h m D Q h.K.K.K.l._ S N h s * f * * : * % ; ; - - - - - % - % & % - % X       ",
"X X X - o % % % % % % ; % - ; ; * % : = = * > u i p S A Q z.K.K.K.l._ S N k a = g * * : % ; : % % % - - % % % % $ $ % X X       ",
"  X X X X X % % % % % % - % % : * * : : = * u a h k S S Q z.K.K.L.l.} D N h a = f > * : % : % & - - % % - - % o % & % $ % X     ",
"X X X X - $ % $ % % % % % % * % * * , : = : u q h j A S ! z.L.L.L.x.] D N h a = l O : : % % % % % % % % ; % % % $ % % % X X     ",
"  X $ - $ % % - - % % % ; % ; ; ; * * > = * a s p j D A W z.L.L.L.x.} D m j s = f : : O * * : * % ; % ; ; % ; % % % $ X o X     ",
"  X $ $ $ % % - - % % % % : % : * * ; = = O = a e n S A _ j.L.L.L.j.} D D h a + f : : : ; % ; * ; % ; % % % % % - % X % X X     ",
"  o X X $ $ % % % ; % & % ; * & ; : > = > * u s h j D D ~ z.K.L.L.b.] D D h s + g > > : * > ; ; % , , % ; % ; ; % $ - o o X X   ",
"  X X $ % $ % % % ; - % % ; % * * * * > = * u i h r A S _ l.L.L.L.x.' D S e s = * O % o o o . . o o X o $ X $ $ X   X X X       ",
"    X - $ - % - - % - % : % ; * * , : > > * a i 8 9 D D _ j.K.L.L.b.} Z S r s k l g d > < < z z , , : - , , ; ; , , - ; % o o   ",
"X X X % $ $ % % % % % ; % : * ; % * : > = * u s k n D D W j.L.L.L.x.] D D j h a = : : % * * % % - ; ; % ; % $ $ X $ % o X X X   ",
"X X X $ % $ % - % % % % , % % % : : : : = = a i h n D S ~ j.K.L.L.z.[ Z m h s u a * = * : * : % - - % % % % % % % % % X X X     ",
"X     $ % $ % - & % - % % ; % : * ; * = = = a i p n D D Q l.L.L.L.z.] D A j 8 a > = * * * * * ; % % % : - % % % % % X X X X     ",
"X   $ $ $ - % % % % - % % % * ; % * * * = * u s j 9 H D Q h.L.L.L.z.] Z S h h u = * * > : % % % % % % ; % % % % % % X %         ",
"  $ X $ $ % % % % % % - % % ; % * * * * * f u h j j D D W j.L.L.L.z.O.D A p s u u = = * % % : ; % % % ; ; % % % % % X % %       ",
"        X   X   #   # $ $ $ $ o % % % O = = u i j n V D Q l.L.L.L.b.} S D r h u a > > : * * % % % % % ; % - % % % $ o % o       ",
"$ % % 1 ; , 1 & z z , 1 , 1 < 2 z : d < = > u s 8 n Z S ! h.L.L.L.z.] Z A e s a a = > : : : * * % % % & ; % % % % o . . % .     ",
"  $   X % % % o $ % % * % * & * % : * * = u u s p 9 D S Q j.K.L.L.x.] D A j s u u = > : ; * ; & & * & % % % % % % % % o   . $   ",
"      % X % % % & $ % % % % % % : : * * > = a i p m A D W j.K.L.L.b.o.S S r h q u = = > : * * % * ; % * % % % % % o o o .       ",
"  %   %   % % % % & % % & % % ; ; : * * = = 4 i h j D S Q h.L.L.L.z.' Z m r s u a = > * > * * * * % % * % * % * % * % o % o     ",
"    o o % % $ % % # % & % * % % * % * * > = u s 9 n S D W l.J.L.K.x.' B A h h u u > > > * > > : * * * * % % % % * o % O . . .   ",
"  X X o $ o % % % % % % % % % * % : * * = = u i j r D A W h.K.L.L.j.] S m r q 4 s a u = = = : * * * * * * * * * * o O o o . .   ",
"  X o % % % % % % & % % % ; % % ; * * = = = u i p r D A W h.K.K.L.j.] D S y r h h a q a = 4 a > = = = = = = * = * * * O * O o   ",
"  X   $ % % % % % * % & % : ; : % : * * = = u s i 9 D S W f.K.K.K.j.' C n r e q q q s 0 0 0 a a u = = O = O + O O O O O . . o   ",
"  o . % % % % % $ % % % % ; % % % * * : = = s s 8 9 D A Q h.G.H.K.j.f.+.T ~ ! T T T Y K L R R L L N M M b M y r m r r y t q t X ",
"  o   % $ % % % ; ; ; ; % : , : : : * * * u u s h 9 S S W f.G.J.H.j.j.t./ m.z.j.d.h.f.f.s.8.s.8.8.0.0.t.4.4.4.=.5.*.,.$.[ | '   ",
"      $ $ % % % % % % % % % , % , * * = = u u h h r A S W f.J.G.G.b.f.t.' D.D.D.F.F.D.F.D.D.D.S.S.A.A.A.C.C.C.m.b.m.x.l.f.u.u.  ",
"    % % $ % % % % & - ; & % * % % * , * * = u 5 h r S S W f.G.G.G.h.h.8.' D.D.F.D.D.F.D.D.D.A.D.D.D.A.A.A.C.C.A.b.M.j.l.k.k.t.# ",
"    % X $ % % % % % ; % % ; & * % % * > > = u i p r S m G j.G.G.J.l.f.7./ d.s.7.9.6.6.0.4.:.&.:.=.%.=.&.=.=.$.*.| $./ ) / ( ) X ",
"      % % % $ & % & & % ; % * ; , * * * = + a i h r D m G f.G.G.F.h.m.! C ( T Y E P L P P L L L N L L N J J J J y J t M y y t   ",
"  o   o % X % ; % % - % % % & % * % * > = = 4 s 8 8 A m G f.G.G.G.f._ C m j j j k k h h s g t s q f f f 0 a > a > > + > = * +   ",
"  o   % $ % % % % ; % ; % % % % * * * > = = u s h 8 A v G p.G.F.F.d.~ v m M M h h k l s k s s f g q f 0 f f a a > f > > + O O   ",
"  o   o $ % % % - % % % & ; - % % * * = = = u u p 9 m m Z f.F.F.F.f.^ v m e i s a > a > > = > * : : : = % * > : o * O o o o .   ",
"      . % $ % % & % % & ; % % - % * * * O = u i p 8 m n Z y.F.F.F.y.W m M e s a > > > : > : * * @ = : : * : : : o * * o * . .   ",
"  o o % % % % - % % - % % - ; ; & % * * * = u i p 8 n n V u.D.F.F.t.! n v h 4 a a = = * : % , % * * * * * * % *   * * % o . o   ",
"      o $ $ % % % & % % % % % % * * * % = O + u p p n n G y.D.F.D.y.W v n 5 i u = = : * * : % * , % : % % % * , % % o % o . .   ",
"  . o o o % % % & % - - % % % ; % * % = O = u u 5 p n n B r.S.D.D.y.W n n 8 u + > * * * * % : , % * % % ; * * * . # % . o o o   ",
"  o o o % % $ - % % & ; % - % % * * % * O = + u i p r r Z r.S.S.S.e.U n n i u = = * * * % ; % % & * : % * : % ; . * * % o o o   ",
"  . o o % % % % % % % - % % % % % % % O * + = + u 5 9 w C w.S.S.S.e.U c y i 0 = O * * % : % % % % ; % % % % % * o % % % .       ",
"      o o % $ % % % % - - % % : & # * * * = = u 4 5 9 9 B w.Z.S.Z.3.G 7 r 4 u = = * : : % % ; & % - % % % & % ; o % . % %   o   ",
"      o % % % X $ $ % % % % % % % % * * * + = + a q r e A w.B.V.V.w.U w 8 q = * O * * % % * ; % - % % - % % % ;   % o % o X .   ",
"  o X o % % $ % $ % % % % % % % % * % * o O = + 4 0 e e m 2.N.B.m.2.G w r u + + * o * % % % % % - % - % % % % - o # % % . $     ",
"  %     X % % % % $ % % % % $ % % % . * * O O O = u e q v ;.N.N.N.2.D 8 5 4 = * * * o % % % % % % $ % % - % o % . # * % % X X   ",
"  o X   X X o % # $ % $ $ % % $ . % % % % O + O = + q q c ;.v.v.v.#.Z 3 3 + + * * % o % % % % $ % X X - % X % %   . % . X X X   ",
"    o o   % X o o   %   o % %   . % . . o O O O O + 5 5 c #.g.v.v.#.c 4 4 + O * O o o o X % o o X X % X o o o %   X o   o       ",
"        X X X X . %         % o   o . % o o . O O + 4 4 6 ..g.a.g...c 3 4 + * o o o % o $ X % X X X $ X o o o o   o .   X       ",
"              X     o %       o o . . # o . . O O O + + 6 ` i.i.i. .c 3 + O O O o o   X X   X o     X X   o . .                 ",
"                                o         o . .   . + + 6 _ i.r.w.W 7 O O O .   . o X     X     X o   X .                       "
};
