/* XPM */
static char *no[] = {
/* columns rows colors chars-per-pixel */
"64 64 101 2 ",
"   c #05060C",
".  c #0C060B",
"X  c #06090E",
"o  c #0A090E",
"O  c #13070C",
"+  c #1C070C",
"@  c #14090D",
"#  c #1B090D",
"$  c #060710",
"%  c #060910",
"&  c #0C0D14",
"*  c #0D0F18",
"=  c #130D13",
"-  c #1B0C12",
";  c #0D1016",
":  c #0E1118",
">  c #111016",
",  c #1E1014",
"<  c #11141B",
"1  c #13181F",
"2  c #23070C",
"3  c #2B070B",
"4  c #23090D",
"5  c #2B090D",
"6  c #3C0607",
"7  c #300A07",
"8  c #34070B",
"9  c #3C060B",
"0  c #34090D",
"q  c #3B090C",
"w  c #220B11",
"e  c #280C10",
"r  c #320A10",
"t  c #211013",
"y  c #151A21",
"u  c #181821",
"i  c #420507",
"p  c #4C0707",
"a  c #42060A",
"s  c #4B0609",
"d  c #42080B",
"f  c #4B090A",
"g  c #5A0507",
"h  c #510907",
"j  c #5D0D07",
"k  c #520609",
"l  c #54090B",
"z  c #620707",
"x  c #6C0505",
"c  c #6C0B04",
"v  c #740706",
"b  c #7D0705",
"n  c #750B05",
"m  c #7C0A04",
"M  c #761204",
"N  c #830604",
"B  c #8B0704",
"V  c #840A04",
"C  c #8C0A04",
"Z  c #930602",
"A  c #9E0700",
"S  c #920B05",
"D  c #9B0B02",
"F  c #950C09",
"G  c #9A0C09",
"H  c #8B1301",
"J  c #921202",
"K  c #9C1202",
"L  c #A30B01",
"P  c #A90E06",
"I  c #A21603",
"U  c #AF1303",
"Y  c #AE1B01",
"T  c #B91001",
"R  c #B71902",
"E  c #BC1B03",
"W  c #C41402",
"Q  c #C21903",
"!  c #CE1B02",
"~  c #C41E0A",
"^  c #D61A03",
"/  c #DC1D03",
"(  c #E31D03",
")  c #EA1F05",
"_  c #E51F09",
"`  c #D32104",
"'  c #DD2004",
"]  c #E42104",
"[  c #EB2304",
"{  c #ED2805",
"}  c #ED2508",
"|  c #EE2B09",
" . c #F32506",
".. c #F52A06",
"X. c #FB2C06",
"o. c #F0270A",
"O. c #F42B09",
"+. c #FB2E0A",
"@. c #FB3207",
"#. c #F7310C",
"$. c #FC320A",
/* pixels */
"          X X   X X o   X X X X X X   % X X % % X % X % X % X % X % X X X % X X X X X X X   X X X     X X X X   X   % X X X     ",
"        X X X X X X % o X X     o % X ; % X X % % % X X % X X % X X X X X X X X X X X   X   X X X   X X o X X   % X % X X X     ",
"    X   X X X   X X % o % X   X % o X & % o X o % o X % X X o o % o X o X X % X o X X X   X X X o   X X o o X % X X % X         ",
"    X   o o     X X % % % X X X . X X & % % o X % & % o ; % o % % X % % X X X & % X o o X X % % % o X X % o o X X X % o X   X   ",
"    o X o % o   % o o ; % % ; X % & o & & % & % & ; ; % o & o % & % & X & X . % o ; % X % % % % % & o & & o o % ; % ; o X o X   ",
"    X o o ; ; X ; ; % % % ; % ; % & o ; & ; % & % o & & ; o o o % & . & & & & & % o % ; ; X ; % ; % o & & & & % ; % : o o o   X ",
"  X X % % o ;   ; & % ; ; ; ; % & ; % ; & ; & & ; & % % % % % ; = % & & % & & & ; ; % X o ; & & & ; ; ; ; % ; & ; X ; X o o X X ",
"  % % o ; o &   & ; ; ; X % ; ; % ; & = & % & & ; & > ; ; ; ; ; & ; & & & & & & % ; ; ; ; ; & & % & & % % ; ; & ; % < o ; X X   ",
"  & % . & o = X & ; & & & ; : & ; ; & > : & & : & & : & & & & ; ; & & & & ; & & % ; ; ; % ; % ; ; & & & & & & ; ; ; > % % % X o ",
"  X & & & & ; X > & & > & > : & ; & & > & ; & ; ; & & : ; : % & & & % & % ; & ; ; & & & ; % : ; & & & ; ; & ; ; : % < & & o X   ",
"    % & o & > X & ; ; & & ; ; & & & & < & & & > ; & & & ; & & & > % ; & % ; : & & ; & & : ; & : ; & * & % ; ; & ; & < % ; o X X ",
"  X . X & = > X > > & > : > & & ; : = < * & ; : * & & ; & % & ; & % ; & : & & ; & & & ; ; % ; & & & & & ; ; * & ; & ; % o o X X ",
"  . o o ; ; > . > & & & = > > & & ; & & & & ; * ; ; ; ; ; & % ; ; ; & & & & & & & ; & : & : : * * & & & & & ; * ; ; 1 & ; X X X ",
"  X . > @ . @ X = = = = = ; & * : > & * & & & & & : & ; & & ; ; ; & ; & & ; : % ; ; ; & % & % : ; ; * * : : * * & ; < & o o X X ",
"    X . . X . X . . . O . . O > & > > > > & & ; & % ; ; & ; ; & % & ; & & % * & % & * * : & & * & & & & & & & : ; & : % ; o   X ",
". . O @ @ # # # , 4 - w - - & * = & : & ; ; ; ; & : & & * & & ; ; : ; & & & & & ; ; ; & & : & & * * & ; ; ; > ; ; > < ; % o     ",
". O @ # # # # # 5 4 t 4 e = @ > > > ; < ; > ; ; ; ; & ; : & * & & ; & & & ; & & & ; & ; & : & & & % * : % ; : & : : < o % & o   ",
"7 M V J K Y R Q Q T / j e @ @ > > > > o & ; > ; ; ; ; & * : ; & : ; : ; ; : ; = ; ; ; ; % & : & * * : ; : * & ; & ; & ; o % X X ",
"3 c M H J I Y R E E ~ n 5 # @ = = > = % ; > < < : : : ; : : > : : : ; : & ; ; ; ; ; ; : : : : : : ; : * & : * : : 1 X % o & X   ",
"7 V J K Q ! ' ` ` ' ! m e # @ > = = = > & % o X o % X % % % % % % X % % % $ X % X % % % % % % % % % % % % % % % : % ; % % o X   ",
"@ 3 7 q q d d f x ] ' N 5 - @ = = & = = u = y 1 y y y 1 y y y y y < y y y y y 1 1 1 1 ; 1 1 1 : 1 : 1 1 1 * 1 1 : & ; & & X X X ",
". + 4 4 5 5 0 6 x [ ' N r + @ , = = = & & & ; & ; & ; ; & & & & & & & & ; ; % % % % ; % ; : & : ; & ; & & & % & & & & % ; o X X ",
". # 4 5 5 5 0 d m ] ] C 0 w # w = @ & > = & & ; ; ; ; & * & * : * * & & ; % ; ; & ; ; & : & ; ; % & % ; & % * & & % & . & % X   ",
". O @ @ 5 5 0 f m { ] C 0 4 # t - = @ = ; & > & * & & & & & & & & & & & % ; % % ; & ; % : % : % ; ; : & : & % : & & & & X X X   ",
". O O # 4 4 q f V ..| D 0 w # - - = > = = & > & & ; & & ; ; & ; : & % ; & & & & ; & : & : & & & & * ; % & & & * & & & & X X     ",
". . O @ 4 4 8 f V ..[ D q - # - = , = = = & & & ; & > & = & & * & & & ; ; & & & & & & % : & * & & ; & & & & & & & & & & & X     ",
". . . # 4 4 8 f V $.| D q e # - = - , & = & > & & & > & ; & & ; & & & : & & ; : & : ; % : & ; : & * & * * & % & & & & % & X X   ",
". O @ @ 4 4 q h C +.} D r e + w - - > = = & & & = ; < & & : & & : & & & ; ; & & & & & % : & ; & & & % * * & * % & & & % . X X   ",
"  . @ O 4 4 8 f C $.O.D q 4 # e - - = = > = & = & & & = & & & ; & * & & & ; % ; & & : % : % * & & ; * & & * & & & & & % % X X X ",
". O O # 4 4 8 k S $...D 0 4 + e - - > = = = & = & & & & & : & * & & & & % ; ; & & & ; % : * % : & % & & & & & & & & & & & X X   ",
". . @ @ 4 3 7 k C $.O.L q 4 - - - - = = & & & & & > & ; * & & & ; & ; & ; & & & & & ; % : & & & & & & & & & & & & & & & % o X   ",
"  . @ @ 4 4 7 j C $.O.D q 4 4 w - - - = = = = & * & & ; & & = & & * & * ; ; : & & ; & & * & & & & & & & * & & & & & & % o X . X ",
"  . O # 4 4 9 k S $.O.L q 5 + 2 - - - = = = & = = & ; : & & > & & & & * ; & & ; = ; & & & & & & & & % ; ; & & & & & % & & X X   ",
"X O O @ 4 4 0 p G $.O.A q + w w - - = = = & = & : = & & > > & & * * & & & & ; = & & & % : ; > & & ; & & & & & % % & & & % X X   ",
". . O @ 4 2 q p F $.O.L a w 2 w - , - = & = & = & > > & * & & & % ; & : & & ; & % & & & : & * & & & & & & ; % & & % & = & O X   ",
"  . O + 4 2 8 p S $.} L q 2 # w - - = - = = = & = & > > & & * & ; % = & ; * & & = & & & > & > & & & ; & & = & & & & & % % X X   ",
". . O # + 3 8 k S $.O.I d w + 2 - - - - = = = = & = * & & & & & & & & & & = ; & > = ; & > = = & ; ; = & & & & & & & . & & &     ",
"  O O @ 2 5 8 l C @...L d 2 + w - - = @ = = = & = & = & > & & = & = & & % & = & ; & > % > & & & = & & & & & & = & & & & & X X   ",
". . O @ # 4 q h Z $...D a w + # - - w = = = = = = * & & * = & = & = & & & = > > = = = . > = = & & & & & = ; = & & & X & & . . X ",
"  . @ @ 4 5 8 l G +. .L 9 3 + 2 # - - - - = = & = = = = = & = & ; = = = & > > > > = > = > > = & = & = = & & & % & O & . & X . X ",
"  . @ # # 4 8 h V $.[ L d 5 # 2 4 - - - @ = = = = = = = = > = > = = & = = = = = = , * O = = = & = = O & & & . & & O & & . &     ",
"  O . # 4 4 8 k F +.] K 9 e 2 4 4 w - - - = - - = , > = = = = = = = = = = & - = = = > O = = - - = = = = = @ = = = & O . . & .   ",
"  . @ @ + 5 8 p C $.O.L 8 5 # w 4 2 - + - @ = = - @ > = - = = # @ = = - - O O O . . O O O O O O   O . . . . . .   . . . O     . ",
". . @ @ 4 4 3 f C ..O.L d 4 # r w - 4 - - + = - = - - = - - - = = # = - - @ - - - - , , w - - - - , - - - - = , + - - = - @ . . ",
"  = O O 4 4 8 p S X.[ P 9 3 2 w w + 2 - + - - @ - - - # t - w , # - t # w O w # - # # # # # # # # - # # # O # @ O O @ . . . . . ",
"  . O # 2 5 8 p B O.O.L 9 3 + 3 w - w + + - + - # , # - - - w + w - # t - - - # w - # 2 w - w 4 - + # @ - - # # O @ - O O O . . ",
"  . O O 4 4 3 h B [ } Z q 5 2 w w w w w w + + - - + - 4 4 4 e w 4 4 w 4 5 # 5 4 2 4 4 w 4 4 w w - e 4 # - # # # # # @ - = . O X ",
".   O O 2 2 3 s C [ ) F 8 2 2 3 e 5 5 2 w 2 2 w 4 e 4 w 4 4 5 4 4 w 4 4 e # e e 4 w w e w w w 2 4 4 w # 4 4 # # # # # # # - O O ",
"  . O O 2 2 3 p N ../ D q 5 5 3 3 8 5 3 3 8 3 8 r 8 8 3 r r 9 0 0 r r 8 8 5 9 3 8 5 e 0 0 8 0 8 5 0 0 0 r w 8 e 5 2 2 2 2 # O O ",
"  . O # 4 4 7 i B [ ' D 9 0 3 5 3 2 5 2 3 5 e 3 2 w 2 3 3 3 2 3 8 3 8 r 3 3 3 5 3 5 8 0 5 2 5 2 3 3 5 5 5 5 2 2 + 2 + 2 + O O O ",
"  . . @ # 4 3 p H ] / D 9 a 9 i 9 9 9 9 9 9 9 a d a a a a a a s a s d f s s s 9 a a s d a a s a d d a a d a 9 a a 8 9 3 3 3 2 + ",
"  . O @ 4 2 3 d C [ / T m N N B N b B B C N b B N N C C N V B N B B C B N C C C C B C C S Z S C N C m b V m b V v v x g z 8 2 + ",
"  O O O 4 4 3 i B [ / ] / ( ^ ( _ ) } o.o.o. . .O.+.O.O. .+.O.O.+.X.+.O.$.$.$.$.$.$.$.+.$.$.#.O.O.$.$.+.$...O. .) ) / W 6 8 2 2 ",
"  . O O # + 8 9 B ( ( ] / / / ) ) [ [ [  .+.O.{ ..X.+.X.$.X.X.$.+.X.+.+.$.X.$.+.$.$.$.+.$.$.+.$.$.$.$.X.+.X. . . .) ( W i 7 2 + ",
"  . @ @ + 2 7 i C C B B C B F B C Z C C B Z B D B B S S F F Z S S D F S B F C F S C C F C G C D S N S B S V B V N b n x h 3 + + ",
"  . . @ + + 2 6 9 9 9 9 a 9 a i 9 9 9 8 9 q 6 9 9 9 q a 9 a 9 a 9 a 9 d 6 a a q a a q 9 9 q 9 d 9 q q d 9 q 8 9 q 9 7 3 3 2 + O ",
"  . . O + + 3 7 3 8 7 6 8 0 0 q 9 q 8 2 8 0 9 q 9 q 9 9 6 q q i 9 8 9 8 9 9 q 9 6 8 8 q 0 8 8 8 8 q 8 7 q 7 6 7 8 3 3 3 2 2 O O ",
"  . @ O @ @ + 4 4 4 2 3 5 4 4 4 2 2 4 # 5 5 2 4 4 2 4 2 4 4 4 5 5 2 2 2 2 2 w 4 2 2 4 4 4 4 4 4 2 4 2 4 # 4 4 + 4 # + + @ @ O O ",
"    . O O O @ # # + + + # 4 # 4 # + 4 @ 4 2 2 + + 2 + 4 4 2 + + 2 2 2 2 2 2 # # + # 4 + 4 # # 4 # # # + # # # # # # + O . O O . ",
"    . O @ @ # @ @ # + @ # # # + # # # @ # + + # # # # O # # + + # + # # # + # + + # + # # # O O # O # # @ @ O @ O O O O O . . . ",
"  . . @ @ . @ @ . . O @ + @ + @ # # @ @ # # # - # # O @ # O + + + + O + # + # # O + # + + O O @ O O O O @ @ O O @ @ O . . . . . ",
"    . . . . . . . O O O O O O O O O @ . O O O @ O O @ @ @ O # @ O O O O O O O O O O O O @ O @ @ O O . @ O . O . . . . @ . . . . ",
"      . . . O . . . . O . . . . O . . X . . . . O . . O O . . O O . O O   O . O O O . O . . O . . . . O . .   . . . . . .   . . ",
"    o   .   . . . . . . . . . . X . O . . . . . . O .   . . . . . . . . . . . . . . . . . . .     O .     . . . .     .   .     "
};
