/* XPM */
static char *so[] = {
/* columns rows colors chars-per-pixel */
"64 64 76 1 ",
"  c #000304",
". c #000B05",
"X c #010609",
"o c #010A0B",
"O c #001405",
"+ c #001B05",
"@ c #01130B",
"# c #001B0A",
"$ c #030D12",
"% c #031213",
"& c #031814",
"* c #08161D",
"= c #021C18",
"- c #002304",
"; c #002C04",
": c #00230A",
"> c #012B0A",
", c #003204",
"< c #003D00",
"1 c #013309",
"2 c #08221F",
"3 c #004401",
"4 c #004B01",
"5 c #005201",
"6 c #025901",
"7 c #006500",
"8 c #006900",
"9 c #027303",
"0 c #007A01",
"q c #008500",
"w c #018B01",
"e c #019401",
"r c #029B00",
"t c #0B9D0B",
"y c #01A301",
"u c #02AD01",
"i c #0AA308",
"p c #03B401",
"a c #0AB307",
"s c #03BA01",
"d c #0ABD01",
"f c #04C300",
"g c #0BC303",
"h c #0BC902",
"j c #0CC109",
"k c #13C207",
"l c #12C90A",
"z c #0DD305",
"x c #14D405",
"c c #17D609",
"v c #41FE3F",
"b c #33FF42",
"n c #3EFE44",
"m c #47FF4E",
"M c #4CFD4C",
"N c #51FF4E",
"B c #43FF50",
"V c #55FE51",
"C c #5DFF56",
"Z c #63FF57",
"A c #64FF5C",
"S c #6DFE5D",
"D c #74FF5F",
"F c #6EFF63",
"G c #76FE66",
"H c #7BFF65",
"J c #7EFF69",
"K c #80FF67",
"L c #83FE69",
"P c #8BFF6E",
"I c #90FF6F",
"U c #8DFF72",
"Y c #93FF75",
"T c #98FF76",
"R c #96FE78",
"E c #99FF7A",
/* pixels */
"                            O-9mb8;OO .                         ",
"                          ..O;8mn8<+..                          ",
"         X  X             ..+,8VM0,+O..                X        ",
"            X   X  X      .O+,tVVe4+O..  .   X                  ",
"      X  XXX o XoX X.     .O+<wACw3-O....XX  X X    XX          ",
"      X X Xo o XXX    X.  OO-3rGZe3-+....X  X X XX XX XX        ",
"        XXoXXX XXXXX  XXX OO-<rGDr3-+O..X.o$XXoXXXoXoXXX X      ",
"      XX X oXXXXXXoXo XO. .+-<yHSe<-+OO..XXo XoXXXXXX X  X X    ",
"    X XX XXo.XX XXXo  oXX O+-3rJGe3-#OXOX.XXXXX XooXoXo oX      ",
" X o  o XXXX XXoooXXXXX.. @+-3yJHq<;-O@o.X..XXooXXXoXXX Xo      ",
"     XXXXoXX XXXXooX.Xoo. #+-<aPHw3-+OOX..XoXXXoXXXXXX Xo X     ",
"      XXXXXXoooXoXXo Xo.X @+-3yUKw3;O+@O.XXo XoXXXXXXXX X X     ",
"     X XoX XXoXoXXoXXXo.O O+;3iUKq3-+OOo.O.XXo@oXXXXooo XXX     ",
"    XXXoXXXXXoXXXXoXoX@Xo O+-3pUHw3--O#O.XXoXXoXXooX X X        ",
"    X oX XoXooXooXoooX@.. O+-3sUPe4;:@O@.X.oXX@XXoXXXXoXXX      ",
"      XXXooXXoXoXoXXoXXXO @->3uPPq3;:@Oo@ .XXXXXoXX XXXX X      ",
"   X  oX ooooXooXXXooXo.. ++>4sYY03;-#Oo.X XoXoooXoo oX $  X    ",
"   XX X oXoXooXoXXXo$o... #+-4uPYe4;#+@@. $X ooooXXX X$   oX    ",
"      XXXXoXXXoooooXooX.. ++;4pULw3;++O@. ooXooo oooXo oo       ",
"     XXXXXXXXXoXXX$oooo@o #:;3pUPw3--OO@O oooXooXo o$ $X$  o    ",
"  .  XXooXo XooXo.o %o.@. #:-4uULw3;>OO@o oXoX$XoXXXXo  XX X    ",
"    oXXXX ooooooXo$ooo$.@ #-;4uYPe4;+@O@@  Xooo XXXX$X$  XX X   ",
"   XX XXoooXoXXoX $$ooo@. #:14uYYw3;:+@.. X.ooXoXXXXX XXXX X    ",
"     XoX o XooXooo  o$oo. +#>4pRYw4;-OOO. oooXoXXXoXX XXXX X    ",
"    X$$$$$$$$X$*$%%%%%o@@ #+>4sRYq4,:+@O@2 ooXoXXoXXX XXXoXX    ",
"   XXX oXXoXX $ooooX@@o%@ #-14gYUq4;:#O.@@=XX@XoXXoXX o XoXXX   ",
"  X XXXXooXXXXoXooooXooo@ #:;4dIPw4>-#+@o.o=X oXo$$ooXXXX X     ",
"    X XXXX $XX$Xo$ooo.o@O #+;4sEYe4;:#@@@@oo=.XoXX X   X X X    ",
"    XXXoXoo$oXX$oXXXX$o%@ #+;4hTYr5,+:@@@XoXo$$*$*$$*$o$%$$XoX  ",
"  X  XXXXoXXoXooX$oo $$@. #:;4sRYw5;:+#@o.@ XX oXoX$XXXXXX    X ",
"  X  XXoXXXXXXXXXXoooXoO. +:;4hRUr5,+#@@@XooooXXXXoXXoXooXXXX   ",
"     oXXoXooXXooo$o$.ooo. #+>4hRYe5,++@O@X%ooooooXXXooXXXoo   X ",
"   X XXXXooooooo oXoo%@o. #:;4sERe5;:+@@@Xo@o$% o$XX oXXooXXX   ",
"   XoXXXX$XXoXooooXoXX$@O ##14lERw5>:#@#@ooXooo XoXXXXoXoX      ",
"  XXoo$XXXoX$oo oooooX@o@ #:15gEYe4,:+#.@ooXoXoooXXoX.oXXoXX X  ",
"    o X ooo ooXoooXoX@ooo #-14dEIw51-+@@@@@oXoXoXXXoXXX oXXX    ",
"  XXXXoXXooXXooXoXooo@$@@ +>15fTRr6;>+.@#oooX%oo@XoXXXXXXXXXX   ",
"     X$XXXooooooooooX$oo@ @:;5hEYw5,:##@@@@$XooooooXXoXXXXoXX   ",
"    X XoXXo$XXXoXoXoooo@@ #:,5xERe5;>+@#o%o%o%oXXXXoXXXXXoo   X ",
"   X XXooXXXoXooXoXooo@oo #>;5sEYe5,-#@&@OoooooXXXooXXXXXXXXXX  ",
"   X X ooooo$o X$XXoXXo%@ #:,5sEYe4;-##@@@ooo$Xo$XoXoX o XXoX   ",
"   XX XX oXoXoooooX$oX@@O #:;5zEYw4;:##@ooooo$oX XoXooXXXo oX   ",
"   XXXXoXoXX$o$ oXXoXXo@@ #:,6fERe4,:#O@@@@oooooXXXXXX oX XX X  ",
"   XXXXoooXo Xo$XXX@o$o@o ##,4pTYq5;:##@oo@o$@oXXo$oXoXooXX X X ",
"  X X XXXXo$oXXooXXooo@o@ #>>4cRPe4,::#&#@oooooo  XX Xo XX  X   ",
" X XoXXXoXXXooXooXX$oo@@. #-;5sRYq4,:##@                        ",
"    XXXXXXXXoXooooXoooX@O :-,4gYPe3;:#OO@oooXXXXXXXXXXX X XX    ",
"      XXXXXXXXooooXo@Xo%o #:;5fYYr4;##@@OX.o. XXXoX$XXXXoX X    ",
"    X XXXX XoXXoXXXooXo@. #:;6uYR04;:#O@#OoooXXXXXXX XX oX  X   ",
"  X XXXXXoXXXoooXooXX$o&@ +#;5fYUe4;:##@O.oo.XoX XXXXX  XX Xo   ",
"    X XXXXXX XooooooXX@$. ++;4zUUw4,-#O@#o..XXooX X XX X XX  X  ",
"  X XXX  XXXXXXoooooXoo@. #-;4fRPe4;##+@O@oooX XooXXXXXX o X    ",
"   oX oXooooXXoXXoXooX@o@ #:;5sYPw3;###o@ooXoXo oXoXXX  X       ",
"   X   XXX %XXXXooXoXoX.@ #+;3pUPq4;++@@&o..XXoXXXoXXXo  XX X   ",
"    oXXXXX o$XXX$X X@o@o. O#-4sULe4;+#@@@o$o. oXoo oXX  X X   X ",
"      o XX XoX oXoX$XX.X@ O:;4kYLw4-#OO@.@..oo X XX  XoXX X     ",
"  X   oXXXXXoXXXXooXoXX@X #+-4jPKr5;+@OO@oooooX XXXXX  X X  X   ",
"  X X X    oXX XoX XoX@o. O+;4uULu3;:@OoO o   o XXXoXX X X      ",
"          X  X oXoX XXXX. OO-4dHGa4-+O.oO. oooX X oXXXXXX       ",
"  X   XX  X X XoX X     . OO-4pFSy3-OO...o    XXX  XX  X  XXX   ",
"            X o     . X . .O+3pAZq<-O....  .       X            ",
"           o  X           O.+<rVMw<+O...            X           ",
"                          ..+,wMM8,+.. .                        ",
"                          ..O;0vn6;+..                          "
};
