/* XPM */
static char *we[] = {
/* columns rows colors chars-per-pixel */
"64 64 96 2 ",
"   c #000306",
".  c #02050B",
"X  c #04090E",
"o  c #020710",
"O  c #050C13",
"+  c #090E15",
"@  c #040F19",
"#  c #090F18",
"$  c #071017",
"%  c #091017",
"&  c #06121B",
"*  c #09121A",
"=  c #0D191F",
"-  c #051622",
";  c #091621",
":  c #061925",
">  c #0B1A24",
",  c #021729",
"<  c #051C2B",
"1  c #0C1D2A",
"2  c #111B25",
"3  c #111E29",
"4  c #031E32",
"5  c #05202E",
"6  c #0D212D",
"7  c #10212C",
"8  c #042234",
"9  c #0A2232",
"0  c #04253B",
"q  c #04283D",
"w  c #102432",
"e  c #022742",
"r  c #032C45",
"t  c #022E49",
"y  c #033147",
"u  c #02314B",
"i  c #013553",
"p  c #013956",
"a  c #02355A",
"s  c #013859",
"d  c #004166",
"f  c #014C6D",
"g  c #00506F",
"h  c #004F77",
"j  c #004E78",
"k  c #015273",
"l  c #01547A",
"z  c #015A7D",
"x  c #005680",
"c  c #005D83",
"v  c #005C88",
"b  c #006184",
"n  c #006886",
"m  c #00638B",
"M  c #01688D",
"N  c #006591",
"B  c #006C94",
"V  c #006E99",
"C  c #007296",
"Z  c #00739C",
"A  c #0177A1",
"S  c #0094C5",
"D  c #009BCA",
"F  c #00A2CE",
"G  c #00A4D1",
"H  c #00ACD5",
"J  c #00AED8",
"K  c #00B0D6",
"L  c #00B5DB",
"P  c #00B9DD",
"I  c #03BAE0",
"U  c #09C0DD",
"Y  c #05C4E3",
"T  c #0AC6E3",
"R  c #06C9E6",
"E  c #0AC5E8",
"W  c #0DCBEA",
"Q  c #10CEEB",
"!  c #0DD1EA",
"~  c #12D1ED",
"^  c #14D7F1",
"/  c #19D6F0",
"(  c #17D9F0",
")  c #1CDBF4",
"_  c #1FE4F9",
"`  c #21E1F6",
"'  c #24E3FA",
"]  c #29E6F9",
"[  c #2CEBFD",
"{  c #32EEFF",
"}  c #2EF2FE",
"|  c #34F3FF",
" . c #3AF6FF",
".. c #3CFAFF",
"X. c #43FDFF",
"o. c #48FDFF",
/* pixels */
"O X O X O O O O O O @ O O # O O O O @ @ @ - - - 4 v H [ [ ] [ H v e , - @ & @ o O @ O O O O O O O + . O X O + + X X X + X X X   ",
"O o X O o O O O O O O O O O O @ O # O @ @ - - - 4 v J [ { [ [ G v q , - - & & O O O O O O O $ O O X X O O X X O X O X X X X O   ",
"O O X $ O O # % $ # # # $ $ O $ & @ @ & - - , , 8 m J { { { [ H N e , , - - @ O # # O O $ O O O + + O + O O O O X O O O X X X   ",
"O O O $ $ # & $ @ * $ @ & $ & & & & $ & - - , < 8 c L [ [ { { H m e , , - & & O $ O $ # O % % # O + O + O + + O % % + O X O X   ",
"% $ O $ $ $ & & % $ & $ & * % * & * $ - & - - < q v L [ { { { H N e < , - @ @ O * & # # # # $ % # $ # + + O + + # + + X X X X   ",
"# $ O @ & & & & & - * # & ; & - - & & : - , < < q m L [ { { { H N r < , - - & @ & % * # # * # * % O # + % % # O + + X + O X X   ",
"# $ O $ & & & $ & & @ - - - > - - - $ - : < , 8 e m L | | { | H N r 4 , - - & o * ; * * & $ % % # % % # % % % # # + + + X o X   ",
"o X o O O @ O O O O O O O O O O O $ @ : : < 5 < q v L  . .| { H B t 4 < - - & @ * * * * * * % % # % % % % $ # # + + + + X X X . ",
"$ & & : - - : - , , < < < , < : : < < < , < 5 8 e m L | | |  .J M t < 8 - - & O & & & * * * * % % % % % + + # % + + X + X X X   ",
"< 5 , < 8 0 8 8 8 8 8 q 0 8 q 0 0 8 8 0 8 8 8 9 e m L  . . .| J N u 4 < , - - $ & = ; * $ = * = * # # # % % # O + + + + X X X   ",
"d f g k z z z z z z z l b c c b z z k l f r 9 8 r m L  .|  . .J B t 4 8 : : - O ; & * $ * & * & = + * * % % # + % + + + + X +   ",
"E T ` ' ] ] } | | |  . . . .|  . .| | } C y 0 8 t m L ..{ |  .K N t < < : : - O ; ; * = * * * $ # = * * % % % # + + + + X X X   ",
"P ~ ( ) _ ] [ [ ] [ | | [ | } } | } [ } C r 0 8 t M L .. . . .K B u 8 < , : ; $ - * $ * & * * = # # = # * * * * + + + + X + .   ",
"d k k z z b b c n c n n c b n b b M z n b r 8 0 r M L .. . . .K B u 0 4 , : : $ ; ; ; * * * * % = # # # % % * % + + + + X X X   ",
", < < : 9 8 < 8 5 8 8 8 9 0 0 8 q 8 8 9 9 < 9 0 r m L  . ... .L B i , & $ $ @ o O o o O O o o O o o o O X X X X X X X X X . X   ",
"- 1 < < 4 1 4 9 9 4 5 5 9 8 9 5 8 9 8 5 8 5 q 0 t M L .. .X. .J B i e 0 9 9 9 9 9 7 7 6 6 > 7 > 1 2 3 2 2 2 ; 2 = = = * + + + X ",
"X O O O O O @ @ O @ @ @ @ $ $ @ & @ $ < 5 8 0 0 u m I  .X. . .L B i 8 8 , 1 , # ; - ; * * * * # % % * % # % + % # + % X X X X   ",
"; - 1 1 1 1 9 1 1 1 1 1 9 < 6 9 1 9 & < < < < 8 y m L ......X.L V a 8 4 < , > ; * & * ; * * = * % * % * % % % + # + + X X + X   ",
"% O * * * ; % * ; * * ; * ; ; ; - ; & < < : 8 0 y m P  . .....L V a q 4 < 1 : - ; % * * * ; % * * * % # % # % + % + X + X X X   ",
"% # * = * * ; * * ; * ; = ; ; ; ; ; & : < 1 0 9 t M L ........L B i q 8 < : : * - & * & * # % * % * % * % # % + + + % + X X X . ",
"# * # % * ; * * * * ; * * & ; ; ; ; & , < 1 8 8 r N P .. .X.X.L Z i q 8 < , > - ; ; * $ # * * % # * # % % # # # + X O + O + X   ",
"# # * % % % * * * * = * & * ; * ; ; @ > : 5 8 8 u m P .... .X.L V i 0 8 < 1 : - - % * * * * % # * # # # # # % # + + + + X X X   ",
"# % * # & % # % * * ; * ; * * ; ; ; & , , 1 8 0 t m L X.....X.P Z i 0 4 < , - ; ; * & % * * * * * # % # O O % % + + + X + X X   ",
"# # % % # $ $ # * * * * * * * ; ; ; $ - 1 , < 0 i m P ........L Z a q 0 < < - ; - * ; * * # * * # # # # % % % $ + + + + X X X   ",
"* # # % * % * % * % ; * * ; * ; - ; $ - : < 8 0 t m P ....X.X.L Z i 0 8 < < - - : ; * * * $ * * % # % # % % # + # + + + X X X   ",
"# % + # % * * % * # * * * * * ; > ; $ 1 > < < 0 r M L ....X.X.L Z i 8 8 4 < - ; & & & & * * # % # % # # % % % % + + + X + X X   ",
"% + # # % % % # * * * * * ; * ; ; ; $ : : 5 5 0 t m P ..X.X.o.I Z i q q < , < - ; * * * * % * % % # * # % % * # + + O + X X X . ",
"# + # % % % # * % % * * * * ; * ; - & < : < 8 0 t m P X.X.o.X.P Z i 8 8 < 1 ; - - * ; - & & * * % % % % % % + # + + + + O X X . ",
"+ + % * * + * # * * * * * * * ; ; ; & : : 5 8 8 t m P X.X.X.X.P Z i 0 8 9 < , ; ; & * * # * * & * % % # # * + + + + + + X O X . ",
"+ % # % % # * * % * * $ * * * * = ; $ - < < < 8 t m P ..X.X.X.L A i 0 8 < 1 , ; - ; & * % * * % # % % % # + # + + + + + X X X   ",
"# % % * * # % * % * & # * * ; = & > & - : < 8 8 u m L X...X.X.P Z a e 0 < 1 : - ; & ; * & $ $ * * $ % % # # + + + + + X X + X   ",
"% % % % % * % * % * % & * ; ; ; ; > $ < : < 5 0 t m P X...X.X.P A i q 8 9 , , ; ; : * ; * * * * % * # * # # # # + + + + + X X . ",
"# # # * # * % $ # # * * % = ; & ; > $ - - < 8 8 y m P X.X.X.o.P A i 0 4 < < : - - & ; & * $ * $ $ % % $ * # # + + + + + + + .   ",
"% # # % # % * * * * % * * - = = ; : $ < < 1 9 8 t m P X.X.o.X.L Z i q 8 4 < : - ; ; = & * & * * * % % * % # + % * + + + X X X   ",
"% # * % * % * % * * $ @ * * ; * > ; $ - : < 4 0 r m P o.X...X.P A p q 8 4 , > : : & $ - - * * % * * * * # % % # % + + + X + X   ",
"+ # % % # * # $ % # * # & * * ; > ; $ - : < 8 5 y m P X.X.X.o.L Z i 4 4 9 1 : - > ; & & * $ * & * % % % % % # % + + + + X X X . ",
"# % % # % $ * % * * * * * * = - = ; $ : > , 8 8 t m P o.X.X.X.P Z i q 8 < , > > - - * $ ; * * % % * % % % $ % % + + + + + X X   ",
"% % % O % * $ # * # # # & ; & = ; $ 1 : > < 5 0 u m P ..X.X.X.P Z i e 0 4 1 : : & O $ $ O O O o O O X O O o X X X X . X . . . . ",
"% % % % $ * % # % * # & * & * & & - - - - 5 < q t m P X.X.X.X.P Z s q 0 4 1 1 O 6 1 6 7 6 > 7 1 1 3 1 3 3 1 2 = 2 = + = + + +   ",
"* % * * * * * ; * * * * * * * O 6 = ; - , , 4 8 t m L X.X.X.o.L A p q 0 4 , & 9 > ; ; > * ; % = % $ # % % % # # + + + + X X X   ",
"X + O X O O O O O O O O O O O 5 & & - : : 5 5 8 t m L X...X.X.P Z p q 0 5 < $ 6 : - & ; * * * * * + * + % % % + + + + + X X X   ",
"2 = 2 3 > 3 1 > 1 3 7 > 1 6 # & > & : = : : < 8 u m L X...X...P C i q 0 < : $ < > - ; & & ; ; * + * * * % % % + + + X + X X +   ",
"# + % % * % % % * * * ; * * @ - & > - = : < 4 0 u m L X.X.X.X.L Z p q 0 < < O 1 1 > ; ; & = = * % % + + % + + + + + + X + X .   ",
"# # % % # * % * % * * * $ ; O & > : : : < < < 8 y M P ..X.X...L C i q 9 8 < O 5 : ; ; ; = & * * = # * * * + + + + X + + . . + . ",
"* % % % * * # * $ & * * & = $ & ; : - : - < 8 0 y m P ..X.....L C i 0 8 < < $ : > - ; ; = & * * # # % # % + % + + + + X . . X   ",
"# # % % * # % # * % * * - & $ - ; & - : : < 8 5 t b I X.X.....L Z u 0 8 5 < $ : > ; * ; = & * * # # % # % + % + + + + X + X X   ",
"# # # % # * * * % * * * * * O & ; - - : : < 8 8 y b L .... ...K C i 8 0 5 < $ 1 1 ; ; & ; * * * % % # % + + + + + + + + + X .   ",
"# # # % # # # * * % * * * * O = - = : - : < 8 < y n L ....| ..L C i 0 8 < - O : : ; * = * - * * * % % # + + + + + + + + X . +   ",
"+ + # % # + % % * % * * * ; O & ; = - : : 8 8 8 y m L .. ... .K B i q 8 < : @ , - ; * ; * % ; # # + # % % + + # + + + + X X     ",
"# # % % * # # * # = # * * * O - * - - : : < 5 5 y m L |  .|  .L B i 8 4 < : @ 1 ; - * * * * % * * # # + % + % # O + O + + X X . ",
"% % # % * # % * * % * % % ; O & & - - - - : 8 8 y M L |  . .| K B u q 4 < : O 1 > ; - & * ; @ * + # % # + % # + + + + + + X X   ",
"% # % % # * * % * % * * * $ O - * - ; - : 5 8 : t b L | { | | J B i 8 < < : - o @ o O O O o O O X + X + X X X X . . . .     X   ",
"# # % % * % % * * % * * * ; O & & - - : : < 8 4 e m L | { [ { J B i 8 < 1 : 1 1 1 1 3 1 3 1 2 2 2 2 2 2 2 = = 2 + 2 2 % * + + . ",
"+ + + + % % * % $ & % * * * O ; ; & ; : : < 5 4 y m J } [ [ { K B t < 4 , , : ; * * * * * % # % # # # % # # % % X + + + + X . . ",
"+ % % + % # # # % % * * % - O & & & - - - < 4 < r m L ] ] [ [ J N t 8 , , ; ; * ; $ ; % & # % $ % # # + + + X % + + + X X X X   ",
"+ + # + + # % # # * * * * $ O & - & $ & - : 4 < r b J | [ ] ' J B t 4 < : - - - & $ # * * % % % * # + + O + % X X + X + X X X   ",
"O % + % % # % * # # # $ & & O & $ & - - - , < < t v H ' ' ' ' G N e < < , - - & * $ & # # # # % + # + + X + + + X + + +   X X   ",
"+ + + + # O % $ $ @ # $ # $ O # $ & $ - - - < 4 q x H ` ' ) ' G M e < : - & & & & & % & $ O O $ + # O + + + + X X + X + + X X   ",
"+ O # # + O O % $ $ $ # # # O $ & & @ - @ - < < e c G ) ) ) ) G m q < , , - & & $ & $ # # O % O + # + + + + X + X + + X + X +   ",
"+ + O O O # # O O $ O # O @ O @ O @ @ @ - & 4 , q z F ^ / ) ~ G c 0 < - & & $ $ # # O $ # O $ O + # + + + X + + X + + + X   +   ",
"+ + O X O O % + O O O O O @ o @ O @ @ @ @ - , , 8 x F Q ~ Q ~ D x e , , - & @ $ $ $ $ $ O % $ O X # + X + + + +   + + + X   +   ",
"X + O + O O O O $ O $ O O O o O O @ @ @ @ - , , 0 l G W Q Q W D x 4 - - - @ $ @ O $ O $ O O O o + X X + X + X X   X + + X + X   ",
"O O X X X O o O O o O O O o o O @ O o @ - @ - - 4 l D E W Q E S j 4 - - - @ O O O O O O o O o O O o O O X X X X X X X X X X X   ",
"X X X X o X X O X X o o o O X o o O @ o @ - - , < l S Y E I I S x , , @ @ @ O O O X X o X O X X X X X X X X X + X X X X X X X   "
};
